HIERARCHY
ROOT Root
{
  OFFSET 0.0 0.0 0.0
  CHANNELS 6 Xposition Yposition Zposition Zrotation Yrotation Xrotation
  JOINT Hips
  {
    OFFSET 0.0 100.0 0.0
    CHANNELS 6 Xposition Yposition Zposition Zrotation Yrotation Xrotation
    JOINT Spine1
    {
      OFFSET -0.013727 5.003763 -0.053727
      CHANNELS 3 Zrotation Yrotation Xrotation
      JOINT Spine2
      {
        OFFSET -0.0 7.125301 -0.029825
        CHANNELS 3 Zrotation Yrotation Xrotation
        JOINT Chest
        {
          OFFSET -1e-06 7.550063 -0.815971
          CHANNELS 3 Zrotation Yrotation Xrotation
          JOINT Neck1
          {
            OFFSET -0.181677 26.311295 -0.553348
            CHANNELS 3 Zrotation Yrotation Xrotation
            JOINT Neck2
            {
              OFFSET -3e-06 7.709397 2.302585
              CHANNELS 3 Zrotation Yrotation Xrotation
              JOINT Head
              {
                OFFSET -5e-06 6.128916 1.953709
                CHANNELS 3 Zrotation Yrotation Xrotation
                JOINT HeadEnd
                {
                  OFFSET 0.003598 16.065403 -1.835379
                  CHANNELS 3 Zrotation Yrotation Xrotation
                }
                JOINT Jaw
                {
                  OFFSET 0.002637 0.475592 3.094941
                  CHANNELS 3 Zrotation Yrotation Xrotation
                }
                JOINT LeftEye
                {
                  OFFSET 3.206381 5.380205 7.586883
                  CHANNELS 3 Zrotation Yrotation Xrotation
                }
                JOINT RightEye
                {
                  OFFSET -3.22244 5.361869 7.558234
                  CHANNELS 3 Zrotation Yrotation Xrotation
                }
              }
            }
          }
          JOINT LeftShoulder
          {
            OFFSET 1.621652 23.237164 5.113413
            CHANNELS 3 Zrotation Yrotation Xrotation
            JOINT LeftArm
            {
              OFFSET 14.919846 2e-06 -5.502326
              CHANNELS 3 Zrotation Yrotation Xrotation
              JOINT LeftForeArm
              {
                OFFSET 28.739307 0.0 -0.002588
                CHANNELS 3 Zrotation Yrotation Xrotation
                JOINT LeftHand
                {
                  OFFSET 27.093981 -1e-06 0.002609
                  CHANNELS 3 Zrotation Yrotation Xrotation
                  JOINT LeftHandThumb1
                  {
                    OFFSET 2.276482 -1.392045 3.191413
                    CHANNELS 3 Zrotation Yrotation Xrotation
                    JOINT LeftHandThumb2
                    {
                      OFFSET 4.012836 -1.828127 1.641654
                      CHANNELS 3 Zrotation Yrotation Xrotation
                      JOINT LeftHandThumb3
                      {
                        OFFSET 2.798515 0.0 -3e-06
                        CHANNELS 3 Zrotation Yrotation Xrotation
                        JOINT LeftHandThumbEnd
                        {
                          OFFSET 3.180793 -4e-06 4e-06
                          CHANNELS 3 Zrotation Yrotation Xrotation
                        }
                      }
                    }
                  }
                  JOINT LeftHandIndex1
                  {
                    OFFSET 3.247555 -0.531998 2.296169
                    CHANNELS 3 Zrotation Yrotation Xrotation
                    JOINT LeftHandIndex2
                    {
                      OFFSET 6.364578 0.01206 0.1786
                      CHANNELS 3 Zrotation Yrotation Xrotation
                      JOINT LeftHandIndex3
                      {
                        OFFSET 3.662364 0.0 0.0
                        CHANNELS 3 Zrotation Yrotation Xrotation
                        JOINT LeftHandIndex4
                        {
                          OFFSET 2.329242 4e-06 4e-06
                          CHANNELS 3 Zrotation Yrotation Xrotation
                          JOINT LeftHandIndexEnd
                          {
                            OFFSET 2.759615 -0.180537 -0.113024
                            CHANNELS 3 Zrotation Yrotation Xrotation
                          }
                        }
                      }
                    }
                  }
                  JOINT LeftHandMiddle1
                  {
                    OFFSET 3.163495 0.240981 1.000332
                    CHANNELS 3 Zrotation Yrotation Xrotation
                    JOINT LeftHandMiddle2
                    {
                      OFFSET 6.19078 -0.259278 -1.002548
                      CHANNELS 3 Zrotation Yrotation Xrotation
                      JOINT LeftHandMiddle3
                      {
                        OFFSET 4.35652 -4e-06 -1e-06
                        CHANNELS 3 Zrotation Yrotation Xrotation
                        JOINT LeftHandMiddle4
                        {
                          OFFSET 2.996877 -8e-06 0.0
                          CHANNELS 3 Zrotation Yrotation Xrotation
                          JOINT LeftHandMiddleEnd
                          {
                            OFFSET 2.304287 -0.294569 -0.031741
                            CHANNELS 3 Zrotation Yrotation Xrotation
                          }
                        }
                      }
                    }
                  }
                  JOINT LeftHandRing1
                  {
                    OFFSET 2.882643 -0.053652 -0.322543
                    CHANNELS 3 Zrotation Yrotation Xrotation
                    JOINT LeftHandRing2
                    {
                      OFFSET 5.854541 -0.486202 -1.373841
                      CHANNELS 3 Zrotation Yrotation Xrotation
                      JOINT LeftHandRing3
                      {
                        OFFSET 4.350578 0.0 3e-06
                        CHANNELS 3 Zrotation Yrotation Xrotation
                        JOINT LeftHandRing4
                        {
                          OFFSET 2.651321 7e-06 2e-06
                          CHANNELS 3 Zrotation Yrotation Xrotation
                          JOINT LeftHandRingEnd
                          {
                            OFFSET 1.936105 0.077687 -7.1e-05
                            CHANNELS 3 Zrotation Yrotation Xrotation
                          }
                        }
                      }
                    }
                  }
                  JOINT LeftHandPinky1
                  {
                    OFFSET 2.8655 -0.310005 -1.600378
                    CHANNELS 3 Zrotation Yrotation Xrotation
                    JOINT LeftHandPinky2
                    {
                      OFFSET 5.087849 -1.331141 -1.77123
                      CHANNELS 3 Zrotation Yrotation Xrotation
                      JOINT LeftHandPinky3
                      {
                        OFFSET 3.070974 4e-06 0.0
                        CHANNELS 3 Zrotation Yrotation Xrotation
                        JOINT LeftHandPinky4
                        {
                          OFFSET 1.549672 0.0 1e-06
                          CHANNELS 3 Zrotation Yrotation Xrotation
                          JOINT LeftHandPinkyEnd
                          {
                            OFFSET 1.944893 -0.157802 0.057219
                            CHANNELS 3 Zrotation Yrotation Xrotation
                          }
                        }
                      }
                    }
                  }
                }
              }
            }
          }
          JOINT RightShoulder
          {
            OFFSET -1.380118 23.180309 5.214158
            CHANNELS 3 Zrotation Yrotation Xrotation
            JOINT RightArm
            {
              OFFSET -15.037196 1.2e-05 -5.545604
              CHANNELS 3 Zrotation Yrotation Xrotation
              JOINT RightForeArm
              {
                OFFSET -28.736639 2e-06 -0.002597
                CHANNELS 3 Zrotation Yrotation Xrotation
                JOINT RightHand
                {
                  OFFSET -27.133619 -0.0 0.002613
                  CHANNELS 3 Zrotation Yrotation Xrotation
                  JOINT RightHandThumb1
                  {
                    OFFSET -2.274032 -1.383988 3.163127
                    CHANNELS 3 Zrotation Yrotation Xrotation
                    JOINT RightHandThumb2
                    {
                      OFFSET -4.011429 -1.827466 1.640914
                      CHANNELS 3 Zrotation Yrotation Xrotation
                      JOINT RightHandThumb3
                      {
                        OFFSET -2.794935 -4e-06 -3e-06
                        CHANNELS 3 Zrotation Yrotation Xrotation
                        JOINT RightHandThumbEnd
                        {
                          OFFSET -3.183852 4e-06 1e-06
                          CHANNELS 3 Zrotation Yrotation Xrotation
                        }
                      }
                    }
                  }
                  JOINT RightHandIndex1
                  {
                    OFFSET -3.253266 -0.520057 2.282866
                    CHANNELS 3 Zrotation Yrotation Xrotation
                    JOINT RightHandIndex2
                    {
                      OFFSET -6.341917 0.012471 0.178266
                      CHANNELS 3 Zrotation Yrotation Xrotation
                      JOINT RightHandIndex3
                      {
                        OFFSET -3.654871 -8e-06 -0.0
                        CHANNELS 3 Zrotation Yrotation Xrotation
                        JOINT RightHandIndex4
                        {
                          OFFSET -2.327586 0.0 1e-06
                          CHANNELS 3 Zrotation Yrotation Xrotation
                          JOINT RightHandIndexEnd
                          {
                            OFFSET -2.76179 -0.180656 -0.113078
                            CHANNELS 3 Zrotation Yrotation Xrotation
                          }
                        }
                      }
                    }
                  }
                  JOINT RightHandMiddle1
                  {
                    OFFSET -3.168106 0.246593 1.00103
                    CHANNELS 3 Zrotation Yrotation Xrotation
                    JOINT RightHandMiddle2
                    {
                      OFFSET -6.180828 -0.258836 -1.000895
                      CHANNELS 3 Zrotation Yrotation Xrotation
                      JOINT RightHandMiddle3
                      {
                        OFFSET -4.348901 0.0 -0.0
                        CHANNELS 3 Zrotation Yrotation Xrotation
                        JOINT RightHandMiddle4
                        {
                          OFFSET -3.00024 -4e-06 -2e-06
                          CHANNELS 3 Zrotation Yrotation Xrotation
                          JOINT RightHandMiddleEnd
                          {
                            OFFSET -2.30252 -0.29437 -0.031706
                            CHANNELS 3 Zrotation Yrotation Xrotation
                          }
                        }
                      }
                    }
                  }
                  JOINT RightHandRing1
                  {
                    OFFSET -2.88569 -0.067952 -0.308858
                    CHANNELS 3 Zrotation Yrotation Xrotation
                    JOINT RightHandRing2
                    {
                      OFFSET -5.854198 -0.48613 -1.373731
                      CHANNELS 3 Zrotation Yrotation Xrotation
                      JOINT RightHandRing3
                      {
                        OFFSET -4.33881 -4e-06 -0.0
                        CHANNELS 3 Zrotation Yrotation Xrotation
                        JOINT RightHandRing4
                        {
                          OFFSET -2.654903 -4e-06 4e-06
                          CHANNELS 3 Zrotation Yrotation Xrotation
                          JOINT RightHandRingEnd
                          {
                            OFFSET -1.933568 0.077527 -5.2e-05
                            CHANNELS 3 Zrotation Yrotation Xrotation
                          }
                        }
                      }
                    }
                  }
                  JOINT RightHandPinky1
                  {
                    OFFSET -2.866425 -0.342796 -1.584145
                    CHANNELS 3 Zrotation Yrotation Xrotation
                    JOINT RightHandPinky2
                    {
                      OFFSET -5.091371 -1.332055 -1.772385
                      CHANNELS 3 Zrotation Yrotation Xrotation
                      JOINT RightHandPinky3
                      {
                        OFFSET -3.062664 -4e-06 1e-06
                        CHANNELS 3 Zrotation Yrotation Xrotation
                        JOINT RightHandPinky4
                        {
                          OFFSET -1.546529 4e-06 -2e-06
                          CHANNELS 3 Zrotation Yrotation Xrotation
                          JOINT RightHandPinkyEnd
                          {
                            OFFSET -1.945119 -0.157718 0.057211
                            CHANNELS 3 Zrotation Yrotation Xrotation
                          }
                        }
                      }
                    }
                  }
                }
              }
            }
          }
        }
      }
    }
    JOINT LeftLeg
    {
      OFFSET 10.043214 -8.434526 2.595655
      CHANNELS 3 Zrotation Yrotation Xrotation
      JOINT LeftShin
      {
        OFFSET -1e-06 -43.221752 -0.802913
        CHANNELS 3 Zrotation Yrotation Xrotation
        JOINT LeftFoot
        {
          OFFSET 1e-06 -42.155094 -3.481523
          CHANNELS 3 Zrotation Yrotation Xrotation
          JOINT LeftToeBase
          {
            OFFSET 0.0 -5.059472 13.231529
            CHANNELS 3 Zrotation Yrotation Xrotation
            JOINT LeftToeEnd
            {
              OFFSET -0.009607 -1.647619 6.513017
              CHANNELS 3 Zrotation Yrotation Xrotation
            }
          }
        }
      }
    }
    JOINT RightLeg
    {
      OFFSET -10.047278 -8.29526 2.620317
      CHANNELS 3 Zrotation Yrotation Xrotation
      JOINT RightShin
      {
        OFFSET 1e-06 -43.362206 -0.805556
        CHANNELS 3 Zrotation Yrotation Xrotation
        JOINT RightFoot
        {
          OFFSET 2e-06 -42.117393 -3.478398
          CHANNELS 3 Zrotation Yrotation Xrotation
          JOINT RightToeBase
          {
            OFFSET -0.0 -5.079609 13.284196
            CHANNELS 3 Zrotation Yrotation Xrotation
            JOINT RightToeEnd
            {
              OFFSET 0.009532 -1.634378 6.460591
              CHANNELS 3 Zrotation Yrotation Xrotation
            }
          }
        }
      }
    }
  }
}
MOTION
Frames: 4
Frame Time: 0.03333333333333333
0.0 0.0 0.0 0.0 -0.0 0.0 3.94312 100.589523 0.672168 1.730733 0.578474 -2.743212 -0.728129 -0.214867 -1.423934 -0.56828 -0.111572 -5.405727 -0.168262 -1.619565 7.707824 -1.701716 3.152886 -1.678716 -0.064349 1.977685 -3.627163 0.71552 1.694416 -5.289171 7.7e-05 -2.2e-05 6e-06 0.018817 -0.021175 0.024406 0.63303 -3.767035 -10.500032 -0.600723 3.73398 -10.572587 -3.860608 -3.393826 14.114017 -61.676945 -13.96656 38.567001 -0.272214 -33.709888 -0.030576 18.381708 1.880245 2.453069 -5.88211 9.86129 0.702593 -10.936877 -0.360573 7.156208 0.0 8.77483 0.0 -15.678957 17.898314 6.25848 -1.844034 2.498505 -2.507277 -10.163608 4.678949 4.62111 -20.976038 -2e-06 -0.0 -21.226301 2.4517 -3.594002 0.0 -6e-06 -1e-06 -1.362683 2.240799 -0.746324 -21.334925 0.584912 3.008322 -13.821221 -2e-06 1e-06 -23.887184 -0.249078 -0.839484 -60.113461 2.704628 -1.298229 -0.294023 1.679687 0.833256 -14.218217 0.093216 1.300579 -34.212074 -0.287561 0.967168 -20.03323 0.964538 1.212842 2e-06 -0.0 0.0 -3.44039 0.788233 0.501656 -15.928194 -3.16731 2.999706 -6.33883 -1e-06 2e-06 -18.123459 3.648184 -4.905674 -5e-06 -0.0 1e-06 9.170666 6.258268 16.354889 65.462349 12.510453 21.904684 0.508581 40.023666 0.508198 -20.671934 10.54306 -5.103787 2.243545 -5.255042 -3.180159 14.2829 -0.826597 6.952503 0.0 -12.690618 -0.0 15.31667 -17.949488 3.066387 1.665669 -1.955925 -2.878302 4.727801 -4.170593 4.993926 11.020536 2e-06 -3e-06 12.109064 -3.735722 -2.866791 -0.0 -1e-06 0.0 1.291988 -1.928551 -1.498091 14.800139 0.567468 3.865606 14.242585 -1.341739 -6.660668 19.631983 0.143927 -0.648251 49.409962 -0.899394 -6.385369 0.353029 -1.511154 -0.031939 20.222805 3.684311 2.316628 18.787287 5e-06 -7e-06 10.751636 -0.479867 1.397904 -1e-06 3e-06 -2e-06 3.273808 0.305947 -0.580114 21.486826 11.830384 2.26613 8.162932 1e-06 -2e-06 18.399099 -3.798989 -4.940588 3e-06 -0.0 -1e-06 -0.303412 3.061352 2.035852 -0.01754 0.161752 2.606129 -3.44367 8.324265 -0.835203 1.631173 -2.007084 -0.1986 -0.0 0.0 2e-06 -7.027642 2.952378 -2.854813 -0.127426 0.110828 11.502402 4.446442 -9.069818 -2.923992 -1.45266 1.14759 -0.13198 0.0 0.0 -1e-06 
0.0 0.0 0.0 0.0 -0.0 0.0 3.990265 100.282433 0.713309 2.391357 0.049072 -2.875123 -0.890897 -0.195532 -1.099322 -0.53278 0.042799 -5.293277 -0.903196 -1.551951 8.005638 -1.679355 3.144155 -2.087943 -0.107998 1.916776 -3.591431 0.818743 1.440077 -6.371729 7.7e-05 -2.2e-05 6e-06 0.021425 -0.017139 0.013177 0.654281 -3.760585 -10.510326 -0.617952 3.734381 -10.582094 -6.126134 -3.084472 14.321383 -59.519363 -13.077081 34.445919 -0.232728 -32.365215 -0.078242 19.490496 -0.421411 1.487975 -5.882107 9.861288 0.702591 -10.936873 -0.360573 7.156208 1e-06 8.774826 -1e-06 -15.618659 17.864492 6.135816 -1.844032 2.498504 -2.507279 -10.163603 4.678945 4.621108 -20.976028 -2e-06 2e-06 -21.226292 2.451699 -3.593999 -0.0 -6e-06 -1e-06 -1.362682 2.240798 -0.746322 -21.334917 0.584911 3.008324 -13.821217 -1e-06 1e-06 -23.887175 -0.249077 -0.839483 -59.947056 2.703143 -1.265957 -0.294023 1.679688 0.833256 -14.218209 0.093216 1.30058 -34.212051 -0.287561 0.96717 -20.033216 0.964539 1.212843 2e-06 -0.0 1e-06 -3.44039 0.788233 0.501655 -15.928189 -3.167309 2.999709 -6.338829 -1e-06 2e-06 -18.123453 3.648184 -4.905672 -4e-06 -0.0 -2e-06 8.708898 6.699069 16.460876 64.262985 12.818829 22.927887 0.93838 45.318535 0.755265 -20.011593 11.002526 -3.894912 2.243543 -5.255039 -3.180159 14.282899 -0.826597 6.952506 0.0 -12.690613 0.0 15.54555 -18.041456 2.980766 1.665667 -1.955921 -2.878301 4.727801 -4.17059 4.993925 11.020534 3e-06 -4e-06 12.10906 -3.735718 -2.866786 0.0 -2e-06 -1e-06 1.291987 -1.92855 -1.49809 14.800136 0.567468 3.865607 14.242582 -1.341738 -6.660664 19.631979 0.143926 -0.648248 49.631889 -0.866047 -6.463114 0.35303 -1.511151 -0.03194 20.222803 3.684311 2.316631 18.787287 4e-06 -3e-06 10.751634 -0.47987 1.397907 1e-06 1e-06 0.0 3.273809 0.305946 -0.580112 21.486828 11.830381 2.266131 8.162932 1e-06 -2e-06 18.399099 -3.798987 -4.940583 2e-06 -0.0 -0.0 -0.946159 3.396983 1.380813 -0.030891 0.133827 4.325532 -3.594415 8.420392 -2.21475 1.644674 -2.036687 -0.143363 0.0 0.0 2e-06 -7.761835 3.535455 -4.635364 -0.118988 0.139312 15.22079 4.762736 -9.246584 -4.751654 -1.467927 1.179785 -0.053686 -0.0 -0.0 -1e-06 
0.0 0.0 0.0 0.0 -0.0 0.0 4.003989 99.839027 0.604814 3.186358 -0.887399 -3.072819 -1.008013 -0.150793 -0.737938 -0.51084 0.277529 -5.174304 -1.760785 -1.442951 8.502125 -1.842429 3.287882 -2.765352 -0.160234 1.849526 -3.603242 0.909828 1.203297 -7.517532 7.7e-05 -2.3e-05 6e-06 0.024934 -0.021468 0.015895 0.679388 -3.762596 -10.52825 -0.63766 3.726678 -10.583317 -8.915933 -2.585487 14.593887 -56.676998 -11.822805 29.473705 -0.182251 -31.827528 -0.145214 20.572882 -2.44011 0.300339 -5.882106 9.861284 0.702592 -10.93687 -0.360574 7.156203 1e-06 8.774826 0.0 -15.468733 17.81328 6.068117 -1.844032 2.498504 -2.507278 -10.1636 4.678946 4.621111 -20.976027 -3e-06 1e-06 -21.226288 2.451699 -3.593999 0.0 -5e-06 -1e-06 -1.362683 2.240799 -0.746323 -21.334913 0.584911 3.008323 -13.821213 -3e-06 1e-06 -23.887169 -0.249079 -0.839485 -59.757633 2.700675 -1.191595 -0.294025 1.679687 0.833255 -14.218208 0.093214 1.300579 -34.212051 -0.287565 0.967168 -20.033211 0.964536 1.212841 1e-06 1e-06 1e-06 -3.440389 0.788232 0.501657 -15.928189 -3.167308 2.999706 -6.338827 -1e-06 2e-06 -18.123449 3.648181 -4.905668 -4e-06 1e-06 -2e-06 8.113864 7.612866 16.400644 62.893059 12.805773 24.086079 0.881278 50.969601 0.849702 -18.694708 11.914162 -2.853839 2.243543 -5.25504 -3.18016 14.282891 -0.826595 6.952504 0.0 -12.690609 -2e-06 15.715078 -17.981447 2.958445 1.665667 -1.955923 -2.878301 4.727799 -4.17059 4.993925 11.020528 2e-06 -4e-06 12.109055 -3.735718 -2.866787 0.0 -0.0 -1e-06 1.291986 -1.928549 -1.49809 14.800129 0.567467 3.865608 14.242576 -1.341736 -6.660662 19.631971 0.143926 -0.648248 49.755188 -0.903967 -6.469488 0.353029 -1.511151 -0.031941 20.222794 3.68431 2.316629 18.787277 4e-06 -5e-06 10.751632 -0.47987 1.397906 -1e-06 1e-06 -0.0 3.273807 0.305947 -0.580113 21.486813 11.830377 2.266132 8.16293 2e-06 -1e-06 18.399088 -3.798985 -4.940578 4e-06 1e-06 -1e-06 -1.60496 3.842201 0.23675 0.001796 0.124744 7.001955 -3.916282 8.827906 -4.148178 1.651214 -2.090021 0.084944 0.0 0.0 2e-06 -8.666048 3.960319 -6.780906 -0.082093 0.197727 19.359243 5.416961 -8.635232 -6.756794 -1.478201 1.168139 0.199172 -0.0 0.0 -1e-06 
0.0 0.0 0.0 0.0 -0.0 0.0 3.866554 99.465088 0.553162 3.533613 -2.070018 -3.19982 -0.796547 -0.117376 -0.487256 -0.453605 0.569168 -5.123905 -2.430786 -1.268203 9.015197 -2.351757 3.450713 -3.458229 -0.144298 2.043168 -3.624601 0.972921 1.166392 -8.437284 7.7e-05 -2.3e-05 6e-06 0.029312 -0.016136 0.007928 0.694803 -3.752898 -10.53228 -0.645283 3.726879 -10.566065 -11.41625 -1.816475 14.78576 -54.329628 -10.521666 25.211647 -0.08766 -31.523537 -0.220666 21.842791 -3.494542 -0.754766 -5.88211 9.861288 0.70259 -10.93688 -0.360576 7.156211 2e-06 8.77483 -0.0 -15.357078 17.742994 6.107279 -1.844034 2.498506 -2.50728 -10.16361 4.678949 4.621111 -20.976042 -5e-06 0.0 -21.226305 2.451697 -3.594002 1e-06 -6e-06 -0.0 -1.362682 2.240797 -0.746324 -21.33493 0.58491 3.008324 -13.821225 -2e-06 0.0 -23.88719 -0.24908 -0.839484 -59.736523 2.693602 -1.088945 -0.294023 1.679687 0.833258 -14.21822 0.093215 1.300581 -34.212082 -0.287565 0.96717 -20.03323 0.964535 1.212842 0.0 1e-06 -0.0 -3.440392 0.788235 0.501656 -15.928201 -3.167311 2.999708 -6.338832 -1e-06 1e-06 -18.123459 3.648182 -4.905674 -4e-06 -0.0 -3e-06 7.350013 8.56444 16.417574 61.814373 12.81919 25.205303 0.480803 55.641911 0.606537 -17.548479 13.025311 -2.119909 2.243542 -5.255038 -3.180159 14.282896 -0.826596 6.952505 -2e-06 -12.690609 0.0 15.739515 -17.925522 2.991398 1.665666 -1.955922 -2.878302 4.727801 -4.170588 4.993926 11.020531 3e-06 -2e-06 12.109058 -3.735718 -2.866787 -1e-06 -2e-06 0.0 1.291988 -1.928552 -1.49809 14.800134 0.567467 3.865609 14.242579 -1.341739 -6.660661 19.631975 0.143925 -0.648248 49.889812 -0.940354 -6.452149 0.353029 -1.511152 -0.03194 20.222801 3.684311 2.316631 18.787283 4e-06 -1e-06 10.751633 -0.479867 1.397906 -0.0 1e-06 -0.0 3.273809 0.305946 -0.58011 21.486824 11.830378 2.266133 8.162932 2e-06 -2e-06 18.399092 -3.798986 -4.940578 3e-06 0.0 -1e-06 -1.734571 4.435178 -0.905 0.041712 0.13858 9.652262 -4.368209 9.241911 -5.984722 1.640752 -2.113447 0.343348 -0.0 0.0 2e-06 -8.955183 4.506578 -8.20151 -0.042416 0.237967 21.782846 5.804963 -7.941956 -8.099678 -1.474629 1.155252 0.545847 -0.0 0.0 -1e-06 
